{"title":"Das Leben der Anderen. [x264](AC3)(5.1 ch).Swe-Eng_sub.mkv","uid":5217626,"size":2209753339,"categoryP":"video","categoryS":"movies","magnet":"?xt=urn:btih:3593515e78c54f529f21e8b53ff78e0706c4ed8a&amp;dn=Das+Leben+der+Anderen.+%5Bx264%5D%28AC3%29%285.1+ch%29.Swe-Eng_sub.mkv&amp;tr=udp%3A%2F%2Ftracker.openbittorrent.com%3A80&amp;tr=udp%3A%2F%2Fopen.demonii.com%3A1337&amp;tr=udp%3A%2F%2Ftracker.coppersurfer.tk%3A6969&amp;tr=udp%3A%2F%2Fexodus.desync.com%3A6969","seeders":1,"leechers":0,"uploader":"Zen_Bud","files":-1,"time":1260808488,"description":"General\nComplete name                    :Das Leben der Anderen.mkv\nFormat                           : Matroska\nFile size                        : 2.06 GiB\nDuration                         : 2h 12mn\nOverall bit rate                 : 2 231 Kbps\n\n\nVideo\nID                               : 1\nFormat                           : AVC\n\nDuration                         : 2h 12mn\nBit rate                         : 1 737 Kbps\nNominal bit rate                 : 1 772 Kbps\nWidth                            : 720 pixels\nHeight                           : 576 pixels\nDisplay aspect ratio             : 16/9\nFrame rate                       : 25.000 fps\nStandard                         : PAL\nResolution                       : 24 bits\nColorimetry                      : 4:2:0\nScan type                        : Progressive\nBits/(Pixel*Frame)               : 0.168\nStream size                      : 1.60 GiB (78%)\nWriting library                  : x264 core 79\n\nAudio\nID                               : 2\nFormat                           : AC-3\nFormat/Info                      : Audio Coding 3\nCodec ID                         : A_AC3\nDuration                         : 2h 12mn\nBit rate mode                    : Constant\nBit rate                         : 448 Kbps\nChannel(s)                       : 6 channels\nChannel positions                : Front: L C R, Surround: L R, LFE\nSampling rate                    : 48.0 KHz\nStream size                      : 423 MiB (20%)\nLanguage                         : English\n\nText #1\nLanguage                         : Swedish\n\nText #2\nLanguage                         : English\n","torrent":{"xt":"urn:btih:3593515e78c54f529f21e8b53ff78e0706c4ed8a","amp;dn":"Das+Leben+der+Anderen.+%5Bx264%5D%28AC3%29%285.1+ch%29.Swe-Eng_sub.mkv","amp;tr":["udp%3A%2F%2Ftracker.openbittorrent.com%3A80","udp%3A%2F%2Fopen.demonii.com%3A1337","udp%3A%2F%2Ftracker.coppersurfer.tk%3A6969","udp%3A%2F%2Fexodus.desync.com%3A6969"],"infoHash":"3593515e78c54f529f21e8b53ff78e0706c4ed8a","infoHashBuffer":{"type":"Buffer","data":[53,147,81,94,120,197,79,82,159,33,232,181,63,247,142,7,6,196,237,138]},"announce":[],"urlList":[]}}